<svg width="40" height="40" viewBox="0 0 40 40" fill="none" xmlns="http://www.w3.org/2000/svg">
<path d="M20 0.625C9.29688 0.625 0.625 9.29688 0.625 20C0.625 30.7031 9.29688 39.375 20 39.375C30.7031 39.375 39.375 30.7031 39.375 20C39.375 9.29688 30.7031 0.625 20 0.625ZM7.5 20H5C5 11.7266 11.7266 5 20 5V7.5C13.1094 7.5 7.5 13.1094 7.5 20ZM20 27.5C15.8594 27.5 12.5 24.1406 12.5 20C12.5 15.8594 15.8594 12.5 20 12.5C24.1406 12.5 27.5 15.8594 27.5 20C27.5 24.1406 24.1406 27.5 20 27.5ZM20 17.5C18.6172 17.5 17.5 18.6172 17.5 20C17.5 21.3828 18.6172 22.5 20 22.5C21.3828 22.5 22.5 21.3828 22.5 20C22.5 18.6172 21.3828 17.5 20 17.5Z" fill="#EAF2FB"/>
</svg>
