<svg width="41" height="20" viewBox="0 0 41 20" fill="none" xmlns="http://www.w3.org/2000/svg">
<path d="M29.9438 0C25.8125 0 22.5812 2.58125 20.5 4.9125C18.4188 2.58125 15.1875 0 11.0562 0C5.2375 0 0.5 4.4875 0.5 10C0.5 15.5125 5.2375 20 11.0562 20C15.1875 20 18.4188 17.4187 20.5 15.0875C22.5812 17.4187 25.8125 20 29.9438 20C35.7625 20 40.5 15.5125 40.5 10C40.5 4.4875 35.7625 0 29.9438 0ZM11.0562 14C8.54375 14 6.5 12.2063 6.5 10C6.5 7.79375 8.54375 6 11.0562 6C13.4437 6 15.6437 8.25625 16.9312 10C15.6562 11.725 13.4375 14 11.0562 14ZM29.9438 14C27.5562 14 25.3563 11.7437 24.0688 10C25.3438 8.275 27.5625 6 29.9438 6C32.4563 6 34.5 7.79375 34.5 10C34.5 12.2063 32.4563 14 29.9438 14Z" fill="#EAF2FB"/>
</svg>
