<svg width="41" height="40" viewBox="0 0 41 40" fill="none" xmlns="http://www.w3.org/2000/svg">
<path d="M37.2484 0.118086L12.2508 7.50012C11.7434 7.65951 11.3 7.97659 10.9851 8.40526C10.6703 8.83392 10.5003 9.35183 10.5 9.88371V30.3064C9.68137 30.1077 8.84239 30.0049 8 30.0001C3.85938 30.0001 0.5 32.2392 0.5 35.0001C0.5 37.7611 3.85938 40.0001 8 40.0001C12.1406 40.0001 15.5 37.7611 15.5 35.0001V16.7439L35.5 10.8845V25.3071C34.6815 25.1078 33.8424 25.0047 33 25.0001C28.8594 25.0001 25.5 27.2392 25.5 30.0001C25.5 32.7611 28.8594 35.0001 33 35.0001C37.1406 35.0001 40.5 32.7618 40.5 30.0001V2.50012C40.4996 2.10765 40.4069 1.72078 40.2292 1.37082C40.0516 1.02086 39.794 0.717642 39.4774 0.485705C39.1608 0.253769 38.7941 0.0996302 38.4068 0.0357644C38.0196 -0.0281014 37.6228 9.99498e-05 37.2484 0.118086Z" fill="#EAF2FB"/>
</svg>
